<?xml version="1.0" encoding="utf-8"?>
<!-- Generator: Adobe Illustrator 16.0.0, SVG Export Plug-In . SVG Version: 6.00 Build 0)  -->
<!DOCTYPE svg PUBLIC "-//W3C//DTD SVG 1.1//EN" "http://www.w3.org/Graphics/SVG/1.1/DTD/svg11.dtd">
<svg version="1.1" id="Layer_1" xmlns="http://www.w3.org/2000/svg" xmlns:xlink="http://www.w3.org/1999/xlink" x="0px" y="0px"
	 width="10.575px" height="10.635px" viewBox="0 0 10.575 10.635" enable-background="new 0 0 10.575 10.635" xml:space="preserve">
<g>
	<path fill-rule="evenodd" clip-rule="evenodd" d="M9.417,10.635c-2.752,0-5.508,0-8.261,0C0.616,10.405,0.231,10.018,0,9.478
		C0,6.725,0,3.97,0,1.216C0.229,0.675,0.618,0.292,1.156,0.06c2.753,0,5.509,0,8.261,0c0.541,0.229,0.926,0.617,1.157,1.156
		c0,2.753,0,5.509,0,8.262C10.344,10.019,9.958,10.404,9.417,10.635z M0.456,3.605C0.447,3.767,0.434,3.888,0.434,4.01
		c-0.001,1.624-0.003,3.247,0,4.87c0.002,0.896,0.422,1.318,1.315,1.32c2.352,0.002,4.703,0.002,7.057,0
		c0.917-0.001,1.331-0.417,1.334-1.343c0.003-1.624,0-3.247,0-4.87c0-0.12-0.016-0.24-0.023-0.356c-0.94,0-1.844,0-2.771,0
		c0.82,1.446,0.746,2.649-0.194,3.586c-0.85,0.848-2.167,1.021-3.193,0.411C3.256,7.212,2.831,6.594,2.682,5.791
		C2.534,4.994,2.796,4.29,3.253,3.605C2.289,3.605,1.397,3.605,0.456,3.605z M3.107,0.516c0,0.896,0,1.743,0,2.699
		c0.388-0.096,0.738-0.138,1.054-0.268c0.71-0.291,1.427-0.358,2.122-0.034c0.392,0.183,0.775,0.238,1.191,0.228
		c0.481-0.013,0.962-0.002,1.444-0.002c0.394,0,0.787,0,1.222,0c0-0.467,0.001-0.877,0-1.287c-0.005-0.95-0.411-1.356-1.362-1.357
		c-1.762-0.002-3.522-0.001-5.284,0C3.375,0.494,3.254,0.507,3.107,0.516z M7.493,5.338C7.482,4.123,6.47,3.125,5.268,3.143
		C4.048,3.16,3.063,4.168,3.083,5.377c0.02,1.199,1.005,2.173,2.203,2.174C6.496,7.553,7.501,6.544,7.493,5.338z M1.805,0.519
		c0,0.9,0,1.751,0,2.581c0.305,0,0.558,0,0.809,0c0-0.878,0-1.721,0-2.581C2.327,0.519,2.072,0.519,1.805,0.519z M1.301,0.56
		C0.794,0.708,0.509,0.962,0.473,1.413C0.427,1.968,0.461,2.53,0.461,3.112c0.287,0,0.552,0,0.84,0
		C1.301,2.253,1.301,1.421,1.301,0.56z"/>
	<path fill-rule="evenodd" clip-rule="evenodd" d="M8.368,0.948c0.993,0.008,0.883-0.114,0.883,0.871
		c0,0.988,0.106,0.884-0.873,0.883C7.39,2.7,7.498,2.818,7.5,1.83C7.5,0.831,7.378,0.958,8.368,0.948z M8.788,2.251
		c0-0.311,0-0.576,0-0.839c-0.296,0-0.561,0-0.827,0c0,0.294,0,0.56,0,0.839C8.246,2.251,8.5,2.251,8.788,2.251z"/>
	<path fill-rule="evenodd" clip-rule="evenodd" d="M5.295,6.771c-0.789,0.004-1.419-0.61-1.432-1.395
		C3.85,4.568,4.474,3.928,5.279,3.923c0.804-0.004,1.437,0.63,1.432,1.437C6.706,6.144,6.082,6.767,5.295,6.771z M4.297,5.314
		c-0.019,0.545,0.42,1.009,0.966,1.023C5.792,6.349,6.245,5.931,6.274,5.4c0.031-0.543-0.398-1.017-0.943-1.042
		C4.786,4.335,4.316,4.768,4.297,5.314z"/>
</g>
</svg>
