<?xml version="1.0" encoding="utf-8"?>
<!-- Generator: Adobe Illustrator 16.0.0, SVG Export Plug-In . SVG Version: 6.00 Build 0)  -->
<!DOCTYPE svg PUBLIC "-//W3C//DTD SVG 1.1//EN" "http://www.w3.org/Graphics/SVG/1.1/DTD/svg11.dtd">
<svg version="1.1" id="Layer_1" xmlns="http://www.w3.org/2000/svg" xmlns:xlink="http://www.w3.org/1999/xlink" x="0px" y="0px"
	 width="90.351px" height="16.2px" viewBox="0 0 90.351 16.2" enable-background="new 0 0 90.351 16.2" xml:space="preserve">
<g>
	<path d="M5.638,6.139c-2.066,0-3.787,1.851-3.787,4.159c0,2.33,1.74,4.203,3.787,4.203c2.069,0,3.767-1.831,3.767-4.203
		C9.405,7.969,7.707,6.139,5.638,6.139 M5.638,16.2C2.46,16.2,0,13.628,0,10.297V0h1.784v6.336c0.917-1.153,2.333-1.894,3.873-1.894
		c3.116,0,5.595,2.502,5.595,5.855C11.251,13.676,8.73,16.2,5.638,16.2"/>
	<path d="M31.601,4.466v1.719c-2.152-0.194-3.523,0.851-3.523,3.002V16.2h-1.83V9.234C26.247,5.839,28.661,4.115,31.601,4.466"/>
	<path d="M37.872,16.2c-2.609,0.301-4.42-1.242-4.42-4.096V2.198h1.826v2.269h2.549v1.762h-2.549v5.876
		c0,1.983,1.201,2.485,2.594,2.393V16.2L37.872,16.2z"/>
	<path d="M48.409,10.362c0-2.331-1.699-4.224-3.779-4.224c-2.07,0-3.77,1.893-3.77,4.224c0,2.288,1.699,4.138,3.77,4.138
		C46.71,14.5,48.409,12.65,48.409,10.362 M50.263,10.362c0,3.225-2.439,5.837-5.633,5.837c-3.184,0-5.639-2.613-5.639-5.837
		c0-3.266,2.455-5.92,5.639-5.92C47.823,4.442,50.263,7.096,50.263,10.362"/>
	<polygon points="53.962,16.2 52.11,16.2 52.11,0 53.962,0 53.962,16.2 	"/>
	<path d="M63.321,4.466h1.848v7.05c0,2.831-2.047,4.684-4.68,4.684c-2.631,0-4.678-1.853-4.678-4.684v-7.05h1.826v7.05
		c0,1.678,1.111,2.898,2.852,2.898c1.721,0,2.832-1.22,2.832-2.898V4.466L63.321,4.466z"/>
	<polygon points="90.351,16.2 88.499,16.2 88.499,4.466 90.351,4.466 90.351,16.2 	"/>
	<polygon points="90.351,2.198 88.499,2.198 88.499,0 90.351,0 90.351,2.198 	"/>
	<path d="M75.241,13.358c-0.643,0.68-1.537,1.075-2.607,1.075c-2.064,0-3.768-1.828-3.768-4.095c0-2.26,1.703-4.138,3.768-4.138
		c1.055,0,1.951,0.401,2.605,1.083l1.238-1.336c-0.98-0.951-2.309-1.505-3.844-1.505c-3.088,0-5.617,2.655-5.617,5.897
		c0,3.248,2.529,5.861,5.617,5.861c1.533,0,2.869-0.556,3.844-1.506L75.241,13.358L75.241,13.358z"/>
	<path d="M85.415,13.358c-0.639,0.68-1.539,1.075-2.604,1.075c-2.066,0-3.766-1.828-3.766-4.095c0-2.26,1.699-4.138,3.766-4.138
		c1.051,0,1.947,0.401,2.604,1.083l1.229-1.336c-0.973-0.951-2.299-1.505-3.832-1.505c-3.094,0-5.619,2.655-5.619,5.897
		c0,3.248,2.525,5.861,5.619,5.861c1.533,0,2.869-0.556,3.84-1.506L85.415,13.358L85.415,13.358z"/>
	<path d="M18.722,14.434c-1.947,0-3.569-1.624-3.748-3.706h9.427c-0.021-3.925-2.785-6.285-5.656-6.285
		c-3.113,0-5.639,2.654-5.639,5.896c0,0.133,0.005,0.262,0.012,0.389l0,0c0.191,3.058,2.634,5.472,5.603,5.472
		c1.535,0,2.869-0.556,3.846-1.506l-1.234-1.335C20.687,14.034,19.79,14.434,18.722,14.434L18.722,14.434z M18.741,6.027
		c1.631,0,3.158,1.216,3.615,3.046h-7.27C15.562,7.156,17.198,6.027,18.741,6.027L18.741,6.027z"/>
</g>
</svg>
